# xmcd
#
# Track frame offsets:
#	150
#	11503
#	24817
#	37007
#	49634
#	62102
#	74368
#	89021
#	101250
#	113166
#	126011
#	137995
#	154009
#	168093
#	180445
#	193251
#	205335
#	218365
#	230482
#	243878
#	254594
#	266418
#	279303
#	290196
#	303475
#	317178
#
# Disc length: 4394 seconds
#
# Revision: 1
# Processed by: cddbd v1.5.1PL2 Copyright (c) Steve Scherf et al.
# Submitted via: audiograbber 1.83.01
#
DISCID=7411281a
DTITLE=Various Artist - The R&B Years 1948 Disk 2
DYEAR=1900
DGENRE=R&B
TTITLE0=Roy Brown - Whose hat Is That?
TTITLE1=Helen Humes - Jumpin' On Sugar Hill
TTITLE2=Big Three Trio - You Sure Look Good to Me
TTITLE3=Little Willie Jackson - Jackson's Boogie
TTITLE4=Bull Moose Jackson - I Want a Bowlegged Woman
TTITLE5=Louis Jordan - Reet Petite and Gone
TTITLE6=Martha Davis - Honey, Honey, Honey
TTITLE7=T-Bone Walker - T-Bone Jumps again
TTITLE8=Joe Lutcher - Hit the Block
TTITLE9=Trenier Twins - Ain't She Mean?
TTITLE10=Paul Gayten - Hey Little Girl
TTITLE11=Gatemouth Moore - Hey Mr Gatemouth
TTITLE12=Lloyd Glen - Rampart St. Jump
TTITLE13=Wynonie Harris - Good Rockin' at Midnight
TTITLE14=Nellie Lutcher - Come and Get It Honey
TTITLE15=Amos Milburn - Pool Playing Blues
TTITLE16=Cootie Williams - You Talk a Little Trash
TTITLE17=Sonny Thompson - Long Gone Pt 1
TTITLE18=Sonny Thompson - Long Gone Pt 2
TTITLE19=Charles Brown - Don't Get Salty, Sugar
TTITLE20=Jimmy Liggins - Cadillac Boogie
TTITLE21=Joe Turner - Whistle Stop Blues
TTITLE22=Nelson Alexander - Rock That Voot
TTITLE23=Jimmy Witherspoon - Money's Getting Cheaper
TTITLE24=Roosevelt Sykes - Boogie Honky Tonk
TTITLE25=Buster Bennett - Three Different Woman
EXTD=
EXTT0=
EXTT1=
EXTT2=
EXTT3=
EXTT4=
EXTT5=
EXTT6=
EXTT7=
EXTT8=
EXTT9=
EXTT10=
EXTT11=
EXTT12=
EXTT13=
EXTT14=
EXTT15=
EXTT16=
EXTT17=
EXTT18=
EXTT19=
EXTT20=
EXTT21=
EXTT22=
EXTT23=
EXTT24=
EXTT25=
PLAYORDER=
